<svg width="355" height="252" viewBox="0 0 355 252" fill="none" xmlns="http://www.w3.org/2000/svg">
<g clip-path="url(#clip0)">
<rect width="355" height="252" fill="white"/>
<rect width="355" height="252" fill="#1F1E1E"/>
<g opacity="0.3">
<path d="M3.34935 41.3127L3.34005 41.2804L3.38295 41.2088L3.4375 41.207C3.50361 41.207 3.66531 41.2892 4.45501 41.7245C4.58311 41.7951 4.72111 41.8712 4.85176 41.9423C4.81063 41.9962 4.77508 42.0538 4.74638 42.115C4.61357 42.0436 4.47224 41.9684 4.341 41.8986C3.40518 41.4012 3.36571 41.3691 3.34935 41.3127ZM6.15496 41.2036C6.44398 40.2246 6.44761 40.1752 6.41636 40.1241L6.39638 40.0934L6.36201 40.0848L6.33919 40.082C6.24644 40.082 6.24076 40.082 5.9486 41.1389C5.91187 41.2715 5.8726 41.4141 5.8344 41.5491C5.9056 41.5586 5.97406 41.575 6.03978 41.5975C6.07729 41.4672 6.11745 41.3309 6.15496 41.2036ZM5.30542 41.6078C5.37026 41.5835 5.43833 41.5653 5.50894 41.5537C5.47036 41.4169 5.4303 41.2721 5.39308 41.1375C5.10132 40.082 5.09573 40.082 5.00298 40.082L4.94344 40.0952L4.92571 40.1242C4.89447 40.1754 4.89809 40.2247 5.18692 41.2036C5.2255 41.3341 5.26684 41.4745 5.30542 41.6078ZM6.51333 41.9299C6.55544 41.9831 6.59178 42.0404 6.62145 42.1013C6.74672 42.034 6.87835 41.964 7.00117 41.8987C7.93719 41.4013 7.97656 41.3691 7.99301 41.3128L8.00222 41.2778L7.95442 41.2071H7.90496C7.83866 41.2071 7.67686 41.2894 6.88628 41.7252C6.76572 41.7915 6.63683 41.8625 6.51333 41.9299ZM5.0736 41.7303C5.13021 41.6906 5.19113 41.6563 5.25596 41.6281C5.18075 41.5055 5.10171 41.3755 5.02845 41.2547C4.46372 40.324 4.45246 40.324 4.37891 40.324L4.35442 40.3244L4.30192 40.3541L4.29282 40.3865C4.27685 40.4432 4.29399 40.4898 4.84246 41.3615C4.91738 41.4806 4.99799 41.6089 5.0736 41.7303ZM6.09336 41.6166C6.15907 41.6431 6.22088 41.6762 6.27876 41.7145C6.35143 41.5979 6.42802 41.4758 6.49971 41.3622C7.04857 40.4898 7.06561 40.4432 7.04965 40.3864L7.03907 40.3519L6.98667 40.324H6.96366C6.8901 40.324 6.87884 40.324 6.31392 41.2546C6.24272 41.3717 6.16652 41.4973 6.09336 41.6166ZM6.63291 41.4549C6.5335 41.5494 6.42684 41.6507 6.32469 41.7467C6.38091 41.7883 6.43262 41.8349 6.47826 41.8864C6.58061 41.7913 6.68815 41.692 6.78854 41.5994C7.55679 40.8909 7.58607 40.8502 7.58636 40.7916L7.58548 40.7557L7.5325 40.7078H7.49704C7.43426 40.7077 7.39078 40.7352 6.63291 41.4549ZM6.64476 42.1525C6.67013 42.2136 6.68874 42.2775 6.70029 42.3438C6.84113 42.309 6.98893 42.2732 7.12673 42.2398C8.16451 41.9886 8.21122 41.9672 8.24257 41.917L8.26108 41.8856L8.25187 41.8532C8.24883 41.8427 8.22983 41.7899 8.15393 41.7899C8.05736 41.7899 7.67441 41.8871 7.05533 42.0471C6.92291 42.0814 6.7809 42.1179 6.64476 42.1525ZM5.56291 41.5458C5.60385 41.5411 5.64528 41.538 5.68749 41.538C5.71834 41.538 5.7488 41.5398 5.77897 41.5423C5.77936 41.4077 5.78034 41.2666 5.78132 41.1349C5.78915 40.1156 5.77907 40.0669 5.7344 40.0249L5.70659 40L5.63264 40.0012L5.60757 40.0248C5.56301 40.0668 5.55282 40.1156 5.56066 41.1348C5.56154 41.2679 5.56262 41.4102 5.56291 41.5458ZM7.66726 42.3941C7.50164 42.3941 7.31566 42.3954 7.13025 42.3966C6.98638 42.3976 6.84319 42.3985 6.7094 42.3988C6.71312 42.4321 6.71528 42.4659 6.71528 42.5C6.71528 42.5341 6.71322 42.5678 6.7094 42.6012C6.84319 42.6015 6.98638 42.6025 7.13016 42.6034C7.31605 42.6047 7.50262 42.6058 7.66863 42.6058C8.29839 42.6058 8.34246 42.5989 8.34246 42.5C8.34246 42.401 8.29839 42.3941 7.66726 42.3941ZM4.55422 41.5996C4.66058 41.6977 4.77508 41.8034 4.88261 41.9036C4.92708 41.8511 4.97674 41.8027 5.03168 41.76C4.92492 41.6596 4.81239 41.5528 4.70799 41.4537C3.95159 40.7352 3.90811 40.7077 3.84552 40.7077L3.80732 40.7086L3.7561 40.7583L3.7562 40.7916C3.75649 40.8502 3.78578 40.8909 4.55422 41.5996ZM7.12604 42.7599C6.98844 42.7266 6.84104 42.6908 6.70049 42.6561C6.68884 42.7223 6.67023 42.7864 6.64486 42.8473C6.78129 42.882 6.92379 42.9187 7.0566 42.9531C7.6751 43.1129 8.05795 43.2102 8.15412 43.2102C8.23003 43.2102 8.24903 43.1574 8.25207 43.1469L8.26068 43.1119L8.24266 43.0831C8.21142 43.0327 8.16441 43.0113 7.12604 42.7599ZM6.27876 43.2855C6.22088 43.3237 6.15907 43.3568 6.09345 43.3833C6.16662 43.5025 6.24291 43.628 6.31402 43.7453C6.87571 44.6713 6.88991 44.6759 6.96248 44.6759C6.96278 44.6759 6.96317 44.6759 6.96356 44.6759L6.98814 44.6755L7.04044 44.6458L7.04965 44.6133C7.06551 44.5567 7.04838 44.51 6.49971 43.6377C6.42802 43.5242 6.35133 43.4021 6.27876 43.2855ZM6.03988 43.4023C5.97426 43.4249 5.9057 43.4413 5.8347 43.4508C5.87289 43.5864 5.91236 43.7294 5.94929 43.8626C6.24134 44.9193 6.25055 44.9202 6.33968 44.9182L6.39883 44.9048L6.41666 44.876C6.4479 44.8247 6.44428 44.7754 6.15525 43.7963C6.11774 43.6691 6.07759 43.5327 6.03988 43.4023ZM7.00176 43.1016C6.87874 43.0362 6.74701 42.9661 6.62165 42.8987C6.59178 42.9595 6.55534 43.0168 6.51333 43.0701C6.63712 43.1376 6.7665 43.2089 6.88717 43.2753C7.67696 43.7109 7.83885 43.7929 7.90506 43.7929L7.95981 43.791L8.00261 43.7194L7.99311 43.6871C7.97656 43.6309 7.93719 43.5987 7.00176 43.1016ZM5.25626 43.3719C5.19142 43.3438 5.1305 43.3094 5.07379 43.2698C4.99828 43.3911 4.91778 43.5193 4.84295 43.6382C4.29429 44.5103 4.27715 44.5568 4.29311 44.6136L4.30379 44.6483L4.35628 44.6762L4.3794 44.6761C4.45285 44.676 4.46411 44.6759 5.02884 43.7453C5.1021 43.6244 5.18094 43.4944 5.25626 43.3719ZM5.18731 43.7967C4.89838 44.7755 4.89476 44.8248 4.926 44.8759L4.94598 44.9067L4.98056 44.9154L5.00347 44.9181C5.09632 44.9181 5.10181 44.9181 5.39377 43.8619C5.43089 43.7275 5.47094 43.583 5.50943 43.4464C5.43882 43.4348 5.37075 43.4168 5.30582 43.3923C5.26713 43.5256 5.2258 43.6661 5.18731 43.7967ZM4.72718 42.8398C4.7024 42.7787 4.68428 42.7146 4.67322 42.6484C4.52337 42.6855 4.36373 42.7242 4.21574 42.7599C3.17786 43.0113 3.13095 43.0327 3.0997 43.0829L3.08119 43.1144L3.0904 43.1467C3.09344 43.1572 3.11244 43.21 3.18834 43.21C3.28481 43.21 3.66766 43.1128 4.28665 42.9528C4.42895 42.9162 4.58223 42.8765 4.72718 42.8398ZM4.85167 43.0577C4.81053 43.0039 4.77488 42.9461 4.74618 42.8849C4.61357 42.9563 4.47224 43.0314 4.3412 43.101C3.40508 43.5986 3.36561 43.6307 3.34926 43.6873L3.34015 43.7221L3.38794 43.7928L3.4374 43.7927C3.50361 43.7926 3.66541 43.7104 4.45569 43.275C4.5836 43.2045 4.7214 43.1287 4.85167 43.0577ZM4.21603 42.2401C4.36392 42.2759 4.52347 42.3146 4.67322 42.3516C4.68428 42.2854 4.7024 42.2214 4.72718 42.1602C4.58194 42.1235 4.42827 42.0838 4.28557 42.0468C3.66717 41.887 3.28471 41.7899 3.18824 41.7899C3.11234 41.7899 3.09334 41.8427 3.0903 41.8533L3.08158 41.8883L3.09961 41.9171C3.13095 41.9674 3.17786 41.9887 4.21603 42.2401ZM5.68749 41.7594C5.25117 41.7594 4.89623 42.0916 4.89623 42.5C4.89623 42.9083 5.25117 43.2406 5.68749 43.2406C6.12382 43.2406 6.47885 42.9083 6.47885 42.5C6.47885 42.0916 6.12382 41.7594 5.68749 41.7594ZM3.67344 42.6058C3.83964 42.6058 4.02612 42.6045 4.21221 42.6034C4.36794 42.6023 4.52258 42.6014 4.66558 42.6012C4.66186 42.5679 4.6598 42.5342 4.6598 42.5C4.6598 42.4659 4.66186 42.4322 4.66558 42.399C4.52258 42.3988 4.36794 42.3977 4.21231 42.3966C4.02632 42.3954 3.83994 42.3942 3.67383 42.3942C3.04407 42.3942 3 42.401 3 42.5001C3 42.5916 3.0997 42.5952 3.25053 42.6008C3.347 42.6044 3.48148 42.6058 3.67344 42.6058ZM4.70985 43.545C4.81376 43.4462 4.92571 43.34 5.03197 43.2401C4.97693 43.1974 4.92728 43.149 4.88281 43.0965C4.77527 43.1968 4.66078 43.3024 4.55432 43.4005C3.78597 44.109 3.75669 44.1498 3.75649 44.2083L3.75728 44.2443L3.81036 44.2922H3.84591C3.9083 44.2921 3.95198 44.2647 4.70985 43.545ZM5.77946 43.4575C5.749 43.4601 5.71854 43.4619 5.68749 43.4619C5.64538 43.4619 5.60414 43.4589 5.5634 43.4542C5.56301 43.5898 5.56203 43.7321 5.56095 43.8648C5.55312 44.8844 5.5634 44.9331 5.60796 44.9752L5.63578 45H5.67143L5.70982 44.9987L5.73499 44.9751C5.77946 44.933 5.78984 44.8843 5.78191 43.8651C5.78083 43.7333 5.77985 43.5921 5.77946 43.4575ZM6.78854 43.4007C6.68815 43.308 6.58042 43.2087 6.47826 43.1136C6.43243 43.1651 6.38071 43.2116 6.32469 43.2531C6.42704 43.3494 6.5338 43.4507 6.6334 43.5453C7.38921 44.2634 7.43416 44.2921 7.49645 44.2921C7.49665 44.2921 7.49675 44.2921 7.49694 44.2921L7.53504 44.291L7.58617 44.2415L7.58597 44.2082C7.58578 44.15 7.55649 44.1092 6.78854 43.4007Z" fill="white"/>
</g>
<g opacity="0.3">
<path d="M104.349 154.313L104.34 154.28L104.383 154.209L104.438 154.207C104.504 154.207 104.665 154.289 105.455 154.725C105.583 154.795 105.721 154.871 105.852 154.942C105.811 154.996 105.775 155.054 105.746 155.115C105.614 155.044 105.472 154.968 105.341 154.899C104.405 154.401 104.366 154.369 104.349 154.313ZM107.155 154.204C107.444 153.225 107.448 153.175 107.416 153.124L107.396 153.093L107.362 153.085L107.339 153.082C107.246 153.082 107.241 153.082 106.949 154.139C106.912 154.272 106.873 154.414 106.834 154.549C106.906 154.559 106.974 154.575 107.04 154.597C107.077 154.467 107.117 154.331 107.155 154.204ZM106.305 154.608C106.37 154.583 106.438 154.565 106.509 154.554C106.47 154.417 106.43 154.272 106.393 154.138C106.101 153.082 106.096 153.082 106.003 153.082L105.943 153.095L105.926 153.124C105.894 153.175 105.898 153.225 106.187 154.204C106.226 154.334 106.267 154.474 106.305 154.608ZM107.513 154.93C107.555 154.983 107.592 155.04 107.621 155.101C107.747 155.034 107.878 154.964 108.001 154.899C108.937 154.401 108.977 154.369 108.993 154.313L109.002 154.278L108.954 154.207H108.905C108.839 154.207 108.677 154.289 107.886 154.725C107.766 154.791 107.637 154.862 107.513 154.93ZM106.074 154.73C106.13 154.691 106.191 154.656 106.256 154.628C106.181 154.506 106.102 154.375 106.028 154.255C105.464 153.324 105.452 153.324 105.379 153.324L105.354 153.324L105.302 153.354L105.293 153.386C105.277 153.443 105.294 153.49 105.842 154.362C105.917 154.481 105.998 154.609 106.074 154.73ZM107.093 154.617C107.159 154.643 107.221 154.676 107.279 154.714C107.351 154.598 107.428 154.476 107.5 154.362C108.049 153.49 108.066 153.443 108.05 153.386L108.039 153.352L107.987 153.324H107.964C107.89 153.324 107.879 153.324 107.314 154.255C107.243 154.372 107.167 154.497 107.093 154.617ZM107.633 154.455C107.534 154.549 107.427 154.651 107.325 154.747C107.381 154.788 107.433 154.835 107.478 154.886C107.581 154.791 107.688 154.692 107.789 154.599C108.557 153.891 108.586 153.85 108.586 153.792L108.585 153.756L108.532 153.708H108.497C108.434 153.708 108.391 153.735 107.633 154.455ZM107.645 155.153C107.67 155.214 107.689 155.277 107.7 155.344C107.841 155.309 107.989 155.273 108.127 155.24C109.165 154.989 109.211 154.967 109.243 154.917L109.261 154.886L109.252 154.853C109.249 154.843 109.23 154.79 109.154 154.79C109.057 154.79 108.674 154.887 108.055 155.047C107.923 155.081 107.781 155.118 107.645 155.153ZM106.563 154.546C106.604 154.541 106.645 154.538 106.687 154.538C106.718 154.538 106.749 154.54 106.779 154.542C106.779 154.408 106.78 154.267 106.781 154.135C106.789 153.116 106.779 153.067 106.734 153.025L106.707 153L106.633 153.001L106.608 153.025C106.563 153.067 106.553 153.116 106.561 154.135C106.562 154.268 106.563 154.41 106.563 154.546ZM108.667 155.394C108.502 155.394 108.316 155.395 108.13 155.397C107.986 155.398 107.843 155.398 107.709 155.399C107.713 155.432 107.715 155.466 107.715 155.5C107.715 155.534 107.713 155.568 107.709 155.601C107.843 155.602 107.986 155.603 108.13 155.603C108.316 155.605 108.503 155.606 108.669 155.606C109.298 155.606 109.342 155.599 109.342 155.5C109.342 155.401 109.298 155.394 108.667 155.394ZM105.554 154.6C105.661 154.698 105.775 154.803 105.883 154.904C105.927 154.851 105.977 154.803 106.032 154.76C105.925 154.66 105.812 154.553 105.708 154.454C104.952 153.735 104.908 153.708 104.846 153.708L104.807 153.709L104.756 153.758L104.756 153.792C104.756 153.85 104.786 153.891 105.554 154.6ZM108.126 155.76C107.988 155.727 107.841 155.691 107.7 155.656C107.689 155.722 107.67 155.786 107.645 155.847C107.781 155.882 107.924 155.919 108.057 155.953C108.675 156.113 109.058 156.21 109.154 156.21C109.23 156.21 109.249 156.157 109.252 156.147L109.261 156.112L109.243 156.083C109.211 156.033 109.164 156.011 108.126 155.76ZM107.279 156.285C107.221 156.324 107.159 156.357 107.093 156.383C107.167 156.503 107.243 156.628 107.314 156.745C107.876 157.671 107.89 157.676 107.962 157.676C107.963 157.676 107.963 157.676 107.964 157.676L107.988 157.675L108.04 157.646L108.05 157.613C108.066 157.557 108.048 157.51 107.5 156.638C107.428 156.524 107.351 156.402 107.279 156.285ZM107.04 156.402C106.974 156.425 106.906 156.441 106.835 156.451C106.873 156.586 106.912 156.729 106.949 156.863C107.241 157.919 107.251 157.92 107.34 157.918L107.399 157.905L107.417 157.876C107.448 157.825 107.444 157.775 107.155 156.796C107.118 156.669 107.078 156.533 107.04 156.402ZM108.002 156.102C107.879 156.036 107.747 155.966 107.622 155.899C107.592 155.959 107.555 156.017 107.513 156.07C107.637 156.138 107.767 156.209 107.887 156.275C108.677 156.711 108.839 156.793 108.905 156.793L108.96 156.791L109.003 156.719L108.993 156.687C108.977 156.631 108.937 156.599 108.002 156.102ZM106.256 156.372C106.191 156.344 106.131 156.309 106.074 156.27C105.998 156.391 105.918 156.519 105.843 156.638C105.294 157.51 105.277 157.557 105.293 157.614L105.304 157.648L105.356 157.676L105.379 157.676C105.453 157.676 105.464 157.676 106.029 156.745C106.102 156.624 106.181 156.494 106.256 156.372ZM106.187 156.797C105.898 157.776 105.895 157.825 105.926 157.876L105.946 157.907L105.981 157.915L106.003 157.918C106.096 157.918 106.102 157.918 106.394 156.862C106.431 156.727 106.471 156.583 106.509 156.446C106.439 156.435 106.371 156.417 106.306 156.392C106.267 156.526 106.226 156.666 106.187 156.797ZM105.727 155.84C105.702 155.779 105.684 155.715 105.673 155.648C105.523 155.685 105.364 155.724 105.216 155.76C104.178 156.011 104.131 156.033 104.1 156.083L104.081 156.114L104.09 156.147C104.093 156.157 104.112 156.21 104.188 156.21C104.285 156.21 104.668 156.113 105.287 155.953C105.429 155.916 105.582 155.877 105.727 155.84ZM105.852 156.058C105.811 156.004 105.775 155.946 105.746 155.885C105.614 155.956 105.472 156.031 105.341 156.101C104.405 156.599 104.366 156.631 104.349 156.687L104.34 156.722L104.388 156.793L104.437 156.793C104.504 156.793 104.665 156.71 105.456 156.275C105.584 156.205 105.721 156.129 105.852 156.058ZM105.216 155.24C105.364 155.276 105.523 155.315 105.673 155.352C105.684 155.285 105.702 155.221 105.727 155.16C105.582 155.123 105.428 155.084 105.286 155.047C104.667 154.887 104.285 154.79 104.188 154.79C104.112 154.79 104.093 154.843 104.09 154.853L104.082 154.888L104.1 154.917C104.131 154.967 104.178 154.989 105.216 155.24ZM106.687 154.759C106.251 154.759 105.896 155.092 105.896 155.5C105.896 155.908 106.251 156.241 106.687 156.241C107.124 156.241 107.479 155.908 107.479 155.5C107.479 155.092 107.124 154.759 106.687 154.759ZM104.673 155.606C104.84 155.606 105.026 155.605 105.212 155.603C105.368 155.602 105.523 155.601 105.666 155.601C105.662 155.568 105.66 155.534 105.66 155.5C105.66 155.466 105.662 155.432 105.666 155.399C105.523 155.399 105.368 155.398 105.212 155.397C105.026 155.395 104.84 155.394 104.674 155.394C104.044 155.394 104 155.401 104 155.5C104 155.592 104.1 155.595 104.251 155.601C104.347 155.604 104.481 155.606 104.673 155.606ZM105.71 156.545C105.814 156.446 105.926 156.34 106.032 156.24C105.977 156.197 105.927 156.149 105.883 156.097C105.775 156.197 105.661 156.302 105.554 156.4C104.786 157.109 104.757 157.15 104.756 157.208L104.757 157.244L104.81 157.292H104.846C104.908 157.292 104.952 157.265 105.71 156.545ZM106.779 156.458C106.749 156.46 106.719 156.462 106.687 156.462C106.645 156.462 106.604 156.459 106.563 156.454C106.563 156.59 106.562 156.732 106.561 156.865C106.553 157.884 106.563 157.933 106.608 157.975L106.636 158H106.671L106.71 157.999L106.735 157.975C106.779 157.933 106.79 157.884 106.782 156.865C106.781 156.733 106.78 156.592 106.779 156.458ZM107.789 156.401C107.688 156.308 107.58 156.209 107.478 156.114C107.432 156.165 107.381 156.212 107.325 156.253C107.427 156.349 107.534 156.451 107.633 156.545C108.389 157.263 108.434 157.292 108.496 157.292C108.497 157.292 108.497 157.292 108.497 157.292L108.535 157.291L108.586 157.241L108.586 157.208C108.586 157.15 108.556 157.109 107.789 156.401Z" fill="white"/>
</g>
<g opacity="0.3">
<path d="M168.349 76.3127L168.34 76.2804L168.383 76.2088L168.438 76.207C168.504 76.207 168.665 76.2892 169.455 76.7245C169.583 76.7951 169.721 76.8712 169.852 76.9423C169.811 76.9962 169.775 77.0538 169.746 77.115C169.614 77.0436 169.472 76.9684 169.341 76.8986C168.405 76.4012 168.366 76.3691 168.349 76.3127ZM171.155 76.2036C171.444 75.2246 171.448 75.1752 171.416 75.1241L171.396 75.0934L171.362 75.0848L171.339 75.082C171.246 75.082 171.241 75.082 170.949 76.1389C170.912 76.2715 170.873 76.4141 170.834 76.5491C170.906 76.5586 170.974 76.575 171.04 76.5975C171.077 76.4672 171.117 76.3309 171.155 76.2036ZM170.305 76.6078C170.37 76.5835 170.438 76.5653 170.509 76.5537C170.47 76.4169 170.43 76.2721 170.393 76.1375C170.101 75.082 170.096 75.082 170.003 75.082L169.943 75.0952L169.926 75.1242C169.894 75.1754 169.898 75.2247 170.187 76.2036C170.226 76.3341 170.267 76.4745 170.305 76.6078ZM171.513 76.9299C171.555 76.9831 171.592 77.0404 171.621 77.1013C171.747 77.034 171.878 76.964 172.001 76.8987C172.937 76.4013 172.977 76.3691 172.993 76.3128L173.002 76.2778L172.954 76.2071H172.905C172.839 76.2071 172.677 76.2894 171.886 76.7252C171.766 76.7915 171.637 76.8625 171.513 76.9299ZM170.074 76.7303C170.13 76.6906 170.191 76.6563 170.256 76.6281C170.181 76.5055 170.102 76.3755 170.028 76.2547C169.464 75.324 169.452 75.324 169.379 75.324L169.354 75.3244L169.302 75.3541L169.293 75.3865C169.277 75.4432 169.294 75.4898 169.842 76.3615C169.917 76.4806 169.998 76.6089 170.074 76.7303ZM171.093 76.6166C171.159 76.6431 171.221 76.6762 171.279 76.7145C171.351 76.5979 171.428 76.4758 171.5 76.3622C172.049 75.4898 172.066 75.4432 172.05 75.3864L172.039 75.3519L171.987 75.324H171.964C171.89 75.324 171.879 75.324 171.314 76.2546C171.243 76.3717 171.167 76.4973 171.093 76.6166ZM171.633 76.4549C171.534 76.5494 171.427 76.6507 171.325 76.7467C171.381 76.7883 171.433 76.8349 171.478 76.8864C171.581 76.7913 171.688 76.692 171.789 76.5994C172.557 75.8909 172.586 75.8502 172.586 75.7916L172.585 75.7557L172.532 75.7078H172.497C172.434 75.7077 172.391 75.7352 171.633 76.4549ZM171.645 77.1525C171.67 77.2136 171.689 77.2775 171.7 77.3438C171.841 77.309 171.989 77.2732 172.127 77.2398C173.165 76.9886 173.211 76.9672 173.243 76.917L173.261 76.8856L173.252 76.8532C173.249 76.8427 173.23 76.7899 173.154 76.7899C173.057 76.7899 172.674 76.8871 172.055 77.0471C171.923 77.0814 171.781 77.1179 171.645 77.1525ZM170.563 76.5458C170.604 76.5411 170.645 76.538 170.687 76.538C170.718 76.538 170.749 76.5398 170.779 76.5423C170.779 76.4077 170.78 76.2666 170.781 76.1349C170.789 75.1156 170.779 75.0669 170.734 75.0249L170.707 75L170.633 75.0012L170.608 75.0248C170.563 75.0668 170.553 75.1156 170.561 76.1348C170.562 76.2679 170.563 76.4102 170.563 76.5458ZM172.667 77.3941C172.502 77.3941 172.316 77.3954 172.13 77.3966C171.986 77.3976 171.843 77.3985 171.709 77.3988C171.713 77.4321 171.715 77.4659 171.715 77.5C171.715 77.5341 171.713 77.5678 171.709 77.6012C171.843 77.6015 171.986 77.6025 172.13 77.6034C172.316 77.6047 172.503 77.6058 172.669 77.6058C173.298 77.6058 173.342 77.5989 173.342 77.5C173.342 77.401 173.298 77.3941 172.667 77.3941ZM169.554 76.5996C169.661 76.6977 169.775 76.8034 169.883 76.9036C169.927 76.8511 169.977 76.8027 170.032 76.76C169.925 76.6596 169.812 76.5528 169.708 76.4537C168.952 75.7352 168.908 75.7077 168.846 75.7077L168.807 75.7086L168.756 75.7583L168.756 75.7916C168.756 75.8502 168.786 75.8909 169.554 76.5996ZM172.126 77.7599C171.988 77.7266 171.841 77.6908 171.7 77.6561C171.689 77.7223 171.67 77.7864 171.645 77.8473C171.781 77.882 171.924 77.9187 172.057 77.9531C172.675 78.1129 173.058 78.2102 173.154 78.2102C173.23 78.2102 173.249 78.1574 173.252 78.1469L173.261 78.1119L173.243 78.0831C173.211 78.0327 173.164 78.0113 172.126 77.7599ZM171.279 78.2855C171.221 78.3237 171.159 78.3568 171.093 78.3833C171.167 78.5025 171.243 78.628 171.314 78.7453C171.876 79.6713 171.89 79.6759 171.962 79.6759C171.963 79.6759 171.963 79.6759 171.964 79.6759L171.988 79.6755L172.04 79.6458L172.05 79.6133C172.066 79.5567 172.048 79.51 171.5 78.6377C171.428 78.5242 171.351 78.4021 171.279 78.2855ZM171.04 78.4023C170.974 78.4249 170.906 78.4413 170.835 78.4508C170.873 78.5864 170.912 78.7294 170.949 78.8626C171.241 79.9193 171.251 79.9202 171.34 79.9182L171.399 79.9048L171.417 79.876C171.448 79.8247 171.444 79.7754 171.155 78.7963C171.118 78.6691 171.078 78.5327 171.04 78.4023ZM172.002 78.1016C171.879 78.0362 171.747 77.9661 171.622 77.8987C171.592 77.9595 171.555 78.0168 171.513 78.0701C171.637 78.1376 171.767 78.2089 171.887 78.2753C172.677 78.7109 172.839 78.7929 172.905 78.7929L172.96 78.791L173.003 78.7194L172.993 78.6871C172.977 78.6309 172.937 78.5987 172.002 78.1016ZM170.256 78.3719C170.191 78.3438 170.131 78.3094 170.074 78.2698C169.998 78.3911 169.918 78.5193 169.843 78.6382C169.294 79.5103 169.277 79.5568 169.293 79.6136L169.304 79.6483L169.356 79.6762L169.379 79.6761C169.453 79.676 169.464 79.6759 170.029 78.7453C170.102 78.6244 170.181 78.4944 170.256 78.3719ZM170.187 78.7967C169.898 79.7755 169.895 79.8248 169.926 79.8759L169.946 79.9067L169.981 79.9154L170.003 79.9181C170.096 79.9181 170.102 79.9181 170.394 78.8619C170.431 78.7275 170.471 78.583 170.509 78.4464C170.439 78.4348 170.371 78.4168 170.306 78.3923C170.267 78.5256 170.226 78.6661 170.187 78.7967ZM169.727 77.8398C169.702 77.7787 169.684 77.7146 169.673 77.6484C169.523 77.6855 169.364 77.7242 169.216 77.7599C168.178 78.0113 168.131 78.0327 168.1 78.0829L168.081 78.1144L168.09 78.1467C168.093 78.1572 168.112 78.21 168.188 78.21C168.285 78.21 168.668 78.1128 169.287 77.9528C169.429 77.9162 169.582 77.8765 169.727 77.8398ZM169.852 78.0577C169.811 78.0039 169.775 77.9461 169.746 77.8849C169.614 77.9563 169.472 78.0314 169.341 78.101C168.405 78.5986 168.366 78.6307 168.349 78.6873L168.34 78.7221L168.388 78.7928L168.437 78.7927C168.504 78.7926 168.665 78.7104 169.456 78.275C169.584 78.2045 169.721 78.1287 169.852 78.0577ZM169.216 77.2401C169.364 77.2759 169.523 77.3146 169.673 77.3516C169.684 77.2854 169.702 77.2214 169.727 77.1602C169.582 77.1235 169.428 77.0838 169.286 77.0468C168.667 76.887 168.285 76.7899 168.188 76.7899C168.112 76.7899 168.093 76.8427 168.09 76.8533L168.082 76.8883L168.1 76.9171C168.131 76.9674 168.178 76.9887 169.216 77.2401ZM170.687 76.7594C170.251 76.7594 169.896 77.0916 169.896 77.5C169.896 77.9083 170.251 78.2406 170.687 78.2406C171.124 78.2406 171.479 77.9083 171.479 77.5C171.479 77.0916 171.124 76.7594 170.687 76.7594ZM168.673 77.6058C168.84 77.6058 169.026 77.6045 169.212 77.6034C169.368 77.6023 169.523 77.6014 169.666 77.6012C169.662 77.5679 169.66 77.5342 169.66 77.5C169.66 77.4659 169.662 77.4322 169.666 77.399C169.523 77.3988 169.368 77.3977 169.212 77.3966C169.026 77.3954 168.84 77.3942 168.674 77.3942C168.044 77.3942 168 77.401 168 77.5001C168 77.5916 168.1 77.5952 168.251 77.6008C168.347 77.6044 168.481 77.6058 168.673 77.6058ZM169.71 78.545C169.814 78.4462 169.926 78.34 170.032 78.2401C169.977 78.1974 169.927 78.149 169.883 78.0965C169.775 78.1968 169.661 78.3024 169.554 78.4005C168.786 79.109 168.757 79.1498 168.756 79.2083L168.757 79.2443L168.81 79.2922H168.846C168.908 79.2921 168.952 79.2647 169.71 78.545ZM170.779 78.4575C170.749 78.4601 170.719 78.4619 170.687 78.4619C170.645 78.4619 170.604 78.4589 170.563 78.4542C170.563 78.5898 170.562 78.7321 170.561 78.8648C170.553 79.8844 170.563 79.9331 170.608 79.9752L170.636 80H170.671L170.71 79.9987L170.735 79.9751C170.779 79.933 170.79 79.8843 170.782 78.8651C170.781 78.7333 170.78 78.5921 170.779 78.4575ZM171.789 78.4007C171.688 78.308 171.58 78.2087 171.478 78.1136C171.432 78.1651 171.381 78.2116 171.325 78.2531C171.427 78.3494 171.534 78.4507 171.633 78.5453C172.389 79.2634 172.434 79.2921 172.496 79.2921C172.497 79.2921 172.497 79.2921 172.497 79.2921L172.535 79.291L172.586 79.2415L172.586 79.2082C172.586 79.15 172.556 79.1092 171.789 78.4007Z" fill="white"/>
</g>
<g opacity="0.3">
<path d="M232.349 -1.68732L232.34 -1.71959L232.383 -1.79118L232.438 -1.79301C232.504 -1.79301 232.665 -1.71079 233.455 -1.27546C233.583 -1.20488 233.721 -1.12879 233.852 -1.05766C233.811 -1.00385 233.775 -0.946191 233.746 -0.884957C233.614 -0.956366 233.472 -1.03163 233.341 -1.10138C232.405 -1.59877 232.366 -1.63086 232.349 -1.68732ZM235.155 -1.79641C235.444 -2.77541 235.448 -2.82482 235.416 -2.87588L235.396 -2.90659L235.362 -2.91521L235.339 -2.91805C235.246 -2.91805 235.241 -2.91805 234.949 -1.86112C234.912 -1.72848 234.873 -1.58594 234.834 -1.45091C234.906 -1.44138 234.974 -1.42497 235.04 -1.40251C235.077 -1.53277 235.117 -1.66908 235.155 -1.79641ZM234.305 -1.39215C234.37 -1.41654 234.438 -1.43469 234.509 -1.44633C234.47 -1.5831 234.43 -1.72793 234.393 -1.8625C234.101 -2.91805 234.096 -2.91805 234.003 -2.91805L233.943 -2.90476L233.926 -2.87579C233.894 -2.82464 233.898 -2.77532 234.187 -1.79641C234.226 -1.66587 234.267 -1.52553 234.305 -1.39215ZM235.513 -1.07013C235.555 -1.01687 235.592 -0.959575 235.621 -0.898708C235.747 -0.965991 235.878 -1.03603 236.001 -1.10129C236.937 -1.59868 236.977 -1.63086 236.993 -1.68723L237.002 -1.72216L236.954 -1.79292H236.905C236.839 -1.79292 236.677 -1.71061 235.886 -1.27482C235.766 -1.20854 235.637 -1.1375 235.513 -1.07013ZM234.074 -1.26969C234.13 -1.30938 234.191 -1.34366 234.256 -1.37189C234.181 -1.49445 234.102 -1.62453 234.028 -1.74535C233.464 -2.67596 233.452 -2.67596 233.379 -2.67596L233.354 -2.67559L233.302 -2.64589L233.293 -2.61353C233.277 -2.55679 233.294 -2.51022 233.842 -1.63846C233.917 -1.51939 233.998 -1.39114 234.074 -1.26969ZM235.093 -1.38344C235.159 -1.35686 235.221 -1.32377 235.279 -1.28554C235.351 -1.40205 235.428 -1.52415 235.5 -1.63782C236.049 -2.51022 236.066 -2.55679 236.05 -2.61362L236.039 -2.64809L235.987 -2.67605H235.964C235.89 -2.67605 235.879 -2.67605 235.314 -1.74544C235.243 -1.62829 235.167 -1.5027 235.093 -1.38344ZM235.633 -1.54505C235.534 -1.45064 235.427 -1.34934 235.325 -1.25328C235.381 -1.21166 235.433 -1.16509 235.478 -1.11358C235.581 -1.20873 235.688 -1.308 235.789 -1.40059C236.557 -2.10908 236.586 -2.14978 236.586 -2.20836L236.585 -2.24429L236.532 -2.29224H236.497C236.434 -2.29233 236.391 -2.26483 235.633 -1.54505ZM235.645 -0.847465C235.67 -0.786415 235.689 -0.722523 235.7 -0.656247C235.841 -0.690989 235.989 -0.726831 236.127 -0.760198C237.165 -1.01137 237.211 -1.03282 237.243 -1.08296L237.261 -1.1144L237.252 -1.14676C237.249 -1.1573 237.23 -1.2101 237.154 -1.2101C237.057 -1.2101 236.674 -1.11293 236.055 -0.952883C235.923 -0.918599 235.781 -0.882116 235.645 -0.847465ZM234.563 -1.45421C234.604 -1.45889 234.645 -1.462 234.687 -1.462C234.718 -1.462 234.749 -1.46017 234.779 -1.4577C234.779 -1.59226 234.78 -1.73343 234.781 -1.86507C234.789 -2.88441 234.779 -2.93308 234.734 -2.97507L234.707 -3L234.633 -2.99881L234.608 -2.97516C234.563 -2.93317 234.553 -2.88441 234.561 -1.86516C234.562 -1.73215 234.563 -1.58979 234.563 -1.45421ZM236.667 -0.605922C236.502 -0.605922 236.316 -0.604638 236.13 -0.603447C235.986 -0.602438 235.843 -0.601522 235.709 -0.601155C235.713 -0.56788 235.715 -0.534146 235.715 -0.499954C235.715 -0.465946 235.713 -0.432212 235.709 -0.398845C235.843 -0.398478 235.986 -0.39747 236.13 -0.396645C236.316 -0.39527 236.503 -0.39417 236.669 -0.39417C237.298 -0.39417 237.342 -0.401137 237.342 -0.499954C237.342 -0.599047 237.298 -0.605922 236.667 -0.605922ZM233.554 -1.4004C233.661 -1.30232 233.775 -1.19663 233.883 -1.09643C233.927 -1.14887 233.977 -1.19727 234.032 -1.23999C233.925 -1.34036 233.812 -1.44715 233.708 -1.54634C232.952 -2.26483 232.908 -2.29233 232.846 -2.29233L232.807 -2.29141L232.756 -2.24173L232.756 -2.20836C232.756 -2.14978 232.786 -2.10908 233.554 -1.4004ZM236.126 -0.240077C235.988 -0.273352 235.841 -0.309194 235.7 -0.343936C235.689 -0.277661 235.67 -0.213585 235.645 -0.152718C235.781 -0.117976 235.924 -0.0813091 236.057 -0.0469338C236.675 0.112934 237.058 0.210193 237.154 0.210193C237.23 0.210193 237.249 0.157393 237.252 0.146851L237.261 0.111926L237.243 0.0830506C237.211 0.0327252 237.164 0.011275 236.126 -0.240077ZM235.279 0.285452C235.221 0.323678 235.159 0.35677 235.093 0.383262C235.167 0.502521 235.243 0.628014 235.314 0.745256C235.876 1.67128 235.89 1.67586 235.962 1.67586C235.963 1.67586 235.963 1.67586 235.964 1.67586L235.988 1.6755L236.04 1.6458L236.05 1.61335C236.066 1.5567 236.048 1.51004 235.5 0.63773C235.428 0.524246 235.351 0.402145 235.279 0.285452ZM235.04 0.402328C234.974 0.424879 234.906 0.441287 234.835 0.45082C234.873 0.586397 234.912 0.729398 234.949 0.862591C235.241 1.91933 235.251 1.92016 235.34 1.91823L235.399 1.90485L235.417 1.87597C235.448 1.82473 235.444 1.77541 235.155 0.796315C235.118 0.669081 235.078 0.532679 235.04 0.402328ZM236.002 0.101567C235.879 0.0362085 235.747 -0.033917 235.622 -0.101293C235.592 -0.0405171 235.555 0.0167751 235.513 0.0701256C235.637 0.137593 235.767 0.20891 235.887 0.275277C236.677 0.710881 236.839 0.792923 236.905 0.792923L236.96 0.790998L237.003 0.719406L236.993 0.687139C236.977 0.630947 236.937 0.59868 236.002 0.101567ZM234.256 0.371895C234.191 0.343753 234.131 0.309378 234.074 0.269777C233.998 0.391053 233.918 0.519296 233.843 0.638188C233.294 1.51031 233.277 1.55679 233.293 1.61362L233.304 1.64827L233.356 1.67623L233.379 1.67614C233.453 1.67596 233.464 1.67586 234.029 0.745348C234.102 0.624439 234.181 0.494362 234.256 0.371895ZM234.187 0.796681C233.898 1.77551 233.895 1.82482 233.926 1.87588L233.946 1.90668L233.981 1.91539L234.003 1.91814C234.096 1.91814 234.102 1.91814 234.394 0.861857C234.431 0.727473 234.471 0.583005 234.509 0.44642C234.439 0.434779 234.371 0.416812 234.306 0.392337C234.267 0.525621 234.226 0.666055 234.187 0.796681ZM233.727 -0.160235C233.702 -0.221285 233.684 -0.285361 233.673 -0.351636C233.523 -0.314511 233.364 -0.275827 233.216 -0.240077C232.178 0.011275 232.131 0.0327253 232.1 0.0828673L232.081 0.114401L232.09 0.146668C232.093 0.15721 232.112 0.21001 232.188 0.21001C232.285 0.21001 232.668 0.112843 233.287 -0.0472086C233.429 -0.0837839 233.582 -0.123476 233.727 -0.160235ZM233.852 0.0576587C233.811 0.00394154 233.775 -0.0539005 233.746 -0.115134C233.614 -0.0437254 233.472 0.0313504 233.341 0.101018C232.405 0.598588 232.366 0.630672 232.349 0.687323L232.34 0.722064L232.388 0.792831L232.437 0.79274C232.504 0.792648 232.665 0.710423 233.456 0.275002C233.584 0.20451 233.721 0.128701 233.852 0.0576587ZM233.216 -0.759923C233.364 -0.724081 233.523 -0.685397 233.673 -0.648364C233.684 -0.714639 233.702 -0.778623 233.727 -0.839765C233.582 -0.876524 233.428 -0.916216 233.286 -0.953158C232.667 -1.11303 232.285 -1.2101 232.188 -1.2101C232.112 -1.2101 232.093 -1.1573 232.09 -1.14667L232.082 -1.11174L232.1 -1.08287C232.131 -1.03263 232.178 -1.01128 233.216 -0.759923ZM234.687 -1.24063C234.251 -1.24063 233.896 -0.908424 233.896 -0.500046C233.896 -0.0916674 234.251 0.240627 234.687 0.240627C235.124 0.240627 235.479 -0.0916674 235.479 -0.500046C235.479 -0.908424 235.124 -1.24063 234.687 -1.24063ZM232.673 -0.39417C232.84 -0.39417 233.026 -0.395453 233.212 -0.396553C233.368 -0.397745 233.523 -0.39857 233.666 -0.398845C233.662 -0.43212 233.66 -0.465762 233.66 -0.500046C233.66 -0.534146 233.662 -0.567788 233.666 -0.600972C233.523 -0.601247 233.368 -0.602255 233.212 -0.603355C233.026 -0.604638 232.84 -0.60583 232.674 -0.60583C232.044 -0.60583 232 -0.598955 232 -0.499863C232 -0.408378 232.1 -0.404803 232.251 -0.399212C232.347 -0.395637 232.481 -0.39417 232.673 -0.39417ZM233.71 0.544963C233.814 0.446237 233.926 0.339994 234.032 0.240077C233.977 0.19736 233.927 0.148959 233.883 0.0965256C233.775 0.19681 233.661 0.302411 233.554 0.400495C232.786 1.10899 232.757 1.14978 232.756 1.20827L232.757 1.24429L232.81 1.29224H232.846C232.908 1.29214 232.952 1.26474 233.71 0.544963ZM234.779 0.457512C234.749 0.460079 234.719 0.461912 234.687 0.461912C234.645 0.461912 234.604 0.458887 234.563 0.454212C234.563 0.589788 234.562 0.732148 234.561 0.86479C234.553 1.88441 234.563 1.93308 234.608 1.97516L234.636 2H234.671L234.71 1.99872L234.735 1.97507C234.779 1.93299 234.79 1.88432 234.782 0.865066C234.781 0.733339 234.78 0.59208 234.779 0.457512ZM235.789 0.400678C235.688 0.308002 235.58 0.208727 235.478 0.113576C235.432 0.165093 235.381 0.211568 235.325 0.253094C235.427 0.349436 235.534 0.450729 235.633 0.545329C236.389 1.26336 236.434 1.29214 236.496 1.29214C236.497 1.29214 236.497 1.29214 236.497 1.29214L236.535 1.29104L236.586 1.24145L236.586 1.20818C236.586 1.14997 236.556 1.10918 235.789 0.400678Z" fill="white"/>
</g>
<g opacity="0.3">
<path d="M225.415 158.313L225.404 158.28L225.455 158.209L225.519 158.207C225.598 158.207 225.79 158.289 226.727 158.725C226.879 158.795 227.043 158.871 227.198 158.942C227.15 158.996 227.107 159.054 227.073 159.115C226.916 159.044 226.748 158.968 226.592 158.899C225.481 158.401 225.434 158.369 225.415 158.313ZM228.746 158.204C229.089 157.225 229.093 157.175 229.056 157.124L229.032 157.093L228.991 157.085L228.964 157.082C228.854 157.082 228.847 157.082 228.501 158.139C228.457 158.272 228.41 158.414 228.365 158.549C228.449 158.559 228.531 158.575 228.609 158.597C228.653 158.467 228.701 158.331 228.746 158.204ZM227.737 158.608C227.814 158.583 227.895 158.565 227.979 158.554C227.933 158.417 227.885 158.272 227.841 158.138C227.495 157.082 227.488 157.082 227.378 157.082L227.307 157.095L227.286 157.124C227.249 157.175 227.253 157.225 227.596 158.204C227.642 158.334 227.691 158.474 227.737 158.608ZM229.171 158.93C229.221 158.983 229.264 159.04 229.299 159.101C229.448 159.034 229.604 158.964 229.75 158.899C230.861 158.401 230.908 158.369 230.928 158.313L230.939 158.278L230.882 158.207H230.823C230.744 158.207 230.552 158.289 229.614 158.725C229.471 158.791 229.318 158.862 229.171 158.93ZM227.462 158.73C227.529 158.691 227.601 158.656 227.678 158.628C227.589 158.506 227.495 158.375 227.408 158.255C226.738 157.324 226.724 157.324 226.637 157.324L226.608 157.324L226.546 157.354L226.535 157.386C226.516 157.443 226.536 157.49 227.187 158.362C227.276 158.481 227.372 158.609 227.462 158.73ZM228.672 158.617C228.75 158.643 228.824 158.676 228.892 158.714C228.979 158.598 229.07 158.476 229.155 158.362C229.806 157.49 229.827 157.443 229.808 157.386L229.795 157.352L229.733 157.324H229.706C229.618 157.324 229.605 157.324 228.934 158.255C228.85 158.372 228.759 158.497 228.672 158.617ZM229.313 158.455C229.195 158.549 229.068 158.651 228.947 158.747C229.014 158.788 229.075 158.835 229.129 158.886C229.251 158.791 229.378 158.692 229.498 158.599C230.41 157.891 230.444 157.85 230.445 157.792L230.444 157.756L230.381 157.708H230.339C230.264 157.708 230.213 157.735 229.313 158.455ZM229.327 159.153C229.357 159.214 229.379 159.277 229.393 159.344C229.56 159.309 229.736 159.273 229.899 159.24C231.131 158.989 231.187 158.967 231.224 158.917L231.246 158.886L231.235 158.853C231.231 158.843 231.209 158.79 231.119 158.79C231.004 158.79 230.549 158.887 229.814 159.047C229.657 159.081 229.489 159.118 229.327 159.153ZM228.043 158.546C228.091 158.541 228.14 158.538 228.191 158.538C228.227 158.538 228.263 158.54 228.299 158.542C228.3 158.408 228.301 158.267 228.302 158.135C228.311 157.116 228.299 157.067 228.246 157.025L228.213 157L228.125 157.001L228.096 157.025C228.043 157.067 228.031 157.116 228.04 158.135C228.041 158.268 228.042 158.41 228.043 158.546ZM230.541 159.394C230.344 159.394 230.123 159.395 229.903 159.397C229.733 159.398 229.563 159.398 229.404 159.399C229.408 159.432 229.411 159.466 229.411 159.5C229.411 159.534 229.408 159.568 229.404 159.601C229.563 159.602 229.733 159.603 229.903 159.603C230.124 159.605 230.345 159.606 230.543 159.606C231.29 159.606 231.342 159.599 231.342 159.5C231.342 159.401 231.29 159.394 230.541 159.394ZM226.845 158.6C226.971 158.698 227.107 158.803 227.235 158.904C227.288 158.851 227.347 158.803 227.412 158.76C227.285 158.66 227.152 158.553 227.028 158.454C226.13 157.735 226.078 157.708 226.004 157.708L225.958 157.709L225.898 157.758L225.898 157.792C225.898 157.85 225.933 157.891 226.845 158.6ZM229.898 159.76C229.735 159.727 229.56 159.691 229.393 159.656C229.379 159.722 229.357 159.786 229.327 159.847C229.489 159.882 229.658 159.919 229.816 159.953C230.55 160.113 231.005 160.21 231.119 160.21C231.209 160.21 231.232 160.157 231.235 160.147L231.245 160.112L231.224 160.083C231.187 160.033 231.131 160.011 229.898 159.76ZM228.892 160.285C228.824 160.324 228.75 160.357 228.672 160.383C228.759 160.503 228.85 160.628 228.934 160.745C229.601 161.671 229.618 161.676 229.704 161.676C229.705 161.676 229.705 161.676 229.705 161.676L229.735 161.675L229.797 161.646L229.808 161.613C229.826 161.557 229.806 161.51 229.155 160.638C229.07 160.524 228.979 160.402 228.892 160.285ZM228.609 160.402C228.531 160.425 228.45 160.441 228.365 160.451C228.411 160.586 228.457 160.729 228.501 160.863C228.848 161.919 228.859 161.92 228.965 161.918L229.035 161.905L229.056 161.876C229.093 161.825 229.089 161.775 228.746 160.796C228.701 160.669 228.654 160.533 228.609 160.402ZM229.751 160.102C229.605 160.036 229.448 159.966 229.3 159.899C229.264 159.959 229.221 160.017 229.171 160.07C229.318 160.138 229.472 160.209 229.615 160.275C230.552 160.711 230.745 160.793 230.823 160.793L230.888 160.791L230.939 160.719L230.928 160.687C230.908 160.631 230.861 160.599 229.751 160.102ZM227.679 160.372C227.602 160.344 227.529 160.309 227.462 160.27C227.372 160.391 227.277 160.519 227.188 160.638C226.537 161.51 226.516 161.557 226.535 161.614L226.548 161.648L226.61 161.676L226.638 161.676C226.725 161.676 226.738 161.676 227.409 160.745C227.496 160.624 227.589 160.494 227.679 160.372ZM227.597 160.797C227.254 161.776 227.249 161.825 227.287 161.876L227.31 161.907L227.351 161.915L227.378 161.918C227.489 161.918 227.495 161.918 227.842 160.862C227.886 160.727 227.933 160.583 227.979 160.446C227.895 160.435 227.815 160.417 227.737 160.392C227.691 160.526 227.642 160.666 227.597 160.797ZM227.05 159.84C227.021 159.779 227 159.715 226.986 159.648C226.809 159.685 226.619 159.724 226.443 159.76C225.211 160.011 225.155 160.033 225.118 160.083L225.096 160.114L225.107 160.147C225.111 160.157 225.133 160.21 225.224 160.21C225.338 160.21 225.793 160.113 226.527 159.953C226.696 159.916 226.878 159.877 227.05 159.84ZM227.198 160.058C227.149 160.004 227.107 159.946 227.073 159.885C226.916 159.956 226.748 160.031 226.592 160.101C225.481 160.599 225.434 160.631 225.415 160.687L225.404 160.722L225.461 160.793L225.519 160.793C225.598 160.793 225.79 160.71 226.728 160.275C226.88 160.205 227.044 160.129 227.198 160.058ZM226.444 159.24C226.619 159.276 226.809 159.315 226.986 159.352C227 159.285 227.021 159.221 227.05 159.16C226.878 159.123 226.696 159.084 226.526 159.047C225.792 158.887 225.338 158.79 225.223 158.79C225.133 158.79 225.111 158.843 225.107 158.853L225.097 158.888L225.118 158.917C225.155 158.967 225.211 158.989 226.444 159.24ZM228.191 158.759C227.673 158.759 227.251 159.092 227.251 159.5C227.251 159.908 227.673 160.241 228.191 160.241C228.709 160.241 229.13 159.908 229.13 159.5C229.13 159.092 228.709 158.759 228.191 158.759ZM225.799 159.606C225.997 159.606 226.218 159.605 226.439 159.603C226.624 159.602 226.808 159.601 226.977 159.601C226.973 159.568 226.97 159.534 226.97 159.5C226.97 159.466 226.973 159.432 226.977 159.399C226.808 159.399 226.624 159.398 226.439 159.397C226.218 159.395 225.997 159.394 225.8 159.394C225.052 159.394 225 159.401 225 159.5C225 159.592 225.118 159.595 225.297 159.601C225.412 159.604 225.572 159.606 225.799 159.606ZM227.03 160.545C227.153 160.446 227.286 160.34 227.412 160.24C227.347 160.197 227.288 160.149 227.235 160.097C227.108 160.197 226.972 160.302 226.845 160.4C225.933 161.109 225.898 161.15 225.898 161.208L225.899 161.244L225.962 161.292H226.004C226.078 161.292 226.13 161.265 227.03 160.545ZM228.3 160.458C228.264 160.46 228.227 160.462 228.191 160.462C228.141 160.462 228.092 160.459 228.043 160.454C228.043 160.59 228.042 160.732 228.04 160.865C228.031 161.884 228.043 161.933 228.096 161.975L228.129 162H228.171L228.217 161.999L228.247 161.975C228.3 161.933 228.312 161.884 228.303 160.865C228.301 160.733 228.3 160.592 228.3 160.458ZM229.498 160.401C229.378 160.308 229.251 160.209 229.129 160.114C229.075 160.165 229.014 160.212 228.947 160.253C229.069 160.349 229.195 160.451 229.313 160.545C230.211 161.263 230.264 161.292 230.338 161.292C230.338 161.292 230.338 161.292 230.339 161.292L230.384 161.291L230.445 161.241L230.444 161.208C230.444 161.15 230.409 161.109 229.498 160.401Z" fill="white"/>
</g>
<g opacity="0.3">
<path d="M316.559 220.1L316.544 220.049L316.613 219.934L316.7 219.931C316.806 219.931 317.064 220.063 318.328 220.759C318.533 220.872 318.754 220.994 318.963 221.108C318.897 221.194 318.84 221.286 318.794 221.384C318.582 221.27 318.356 221.149 318.146 221.038C316.648 220.242 316.585 220.191 316.559 220.1ZM321.048 219.926C321.51 218.359 321.516 218.28 321.466 218.199L321.434 218.149L321.379 218.136L321.343 218.131C321.194 218.131 321.185 218.131 320.718 219.822C320.659 220.034 320.596 220.262 320.535 220.479C320.649 220.494 320.759 220.52 320.864 220.556C320.924 220.348 320.988 220.129 321.048 219.926ZM319.689 220.573C319.792 220.534 319.901 220.505 320.014 220.486C319.953 220.267 319.888 220.035 319.829 219.82C319.362 218.131 319.353 218.131 319.205 218.131L319.109 218.152L319.081 218.199C319.031 218.281 319.037 218.359 319.499 219.926C319.561 220.135 319.627 220.359 319.689 220.573ZM321.621 221.088C321.689 221.173 321.747 221.265 321.794 221.362C321.995 221.254 322.205 221.142 322.402 221.038C323.899 220.242 323.962 220.191 323.989 220.1L324.004 220.045L323.927 219.931H323.848C323.742 219.931 323.483 220.063 322.218 220.76C322.025 220.866 321.819 220.98 321.621 221.088ZM319.318 220.769C319.408 220.705 319.506 220.65 319.61 220.605C319.489 220.409 319.363 220.201 319.246 220.007C318.342 218.518 318.324 218.518 318.206 218.518L318.167 218.519L318.083 218.567L318.069 218.618C318.043 218.709 318.07 218.784 318.948 220.178C319.068 220.369 319.197 220.574 319.318 220.769ZM320.949 220.586C321.055 220.629 321.153 220.682 321.246 220.743C321.362 220.557 321.485 220.361 321.6 220.179C322.478 218.784 322.505 218.709 322.479 218.618L322.463 218.563L322.379 218.518H322.342C322.224 218.518 322.206 218.518 321.302 220.007C321.188 220.195 321.066 220.396 320.949 220.586ZM321.813 220.328C321.654 220.479 321.483 220.641 321.32 220.795C321.409 220.861 321.492 220.936 321.565 221.018C321.729 220.866 321.901 220.707 322.062 220.559C323.291 219.425 323.338 219.36 323.338 219.267L323.337 219.209L323.252 219.132H323.195C323.095 219.132 323.025 219.176 321.813 220.328ZM321.832 221.444C321.872 221.542 321.902 221.644 321.92 221.75C322.146 221.694 322.382 221.637 322.603 221.584C324.263 221.182 324.338 221.147 324.388 221.067L324.418 221.017L324.403 220.965C324.398 220.948 324.368 220.864 324.246 220.864C324.092 220.864 323.479 221.019 322.489 221.275C322.277 221.33 322.049 221.389 321.832 221.444ZM320.101 220.473C320.166 220.466 320.232 220.461 320.3 220.461C320.349 220.461 320.398 220.464 320.446 220.468C320.447 220.252 320.449 220.027 320.45 219.816C320.463 218.185 320.447 218.107 320.375 218.04L320.331 218L320.212 218.002L320.172 218.04C320.101 218.107 320.085 218.185 320.097 219.816C320.098 220.029 320.1 220.256 320.101 220.473ZM323.468 221.831C323.203 221.831 322.905 221.833 322.608 221.834C322.378 221.836 322.149 221.838 321.935 221.838C321.941 221.891 321.944 221.945 321.944 222C321.944 222.054 321.941 222.108 321.935 222.162C322.149 222.162 322.378 222.164 322.608 222.165C322.906 222.168 323.204 222.169 323.47 222.169C324.477 222.169 324.548 222.158 324.548 222C324.548 221.842 324.477 221.831 323.468 221.831ZM318.487 220.559C318.657 220.716 318.84 220.885 319.012 221.046C319.083 220.962 319.163 220.884 319.251 220.816C319.08 220.655 318.9 220.485 318.733 220.326C317.523 219.176 317.453 219.132 317.353 219.132L317.292 219.134L317.21 219.213L317.21 219.267C317.21 219.36 317.257 219.425 318.487 220.559ZM322.602 222.416C322.381 222.363 322.146 222.305 321.921 222.25C321.902 222.356 321.872 222.458 321.832 222.556C322.05 222.611 322.278 222.67 322.491 222.725C323.48 222.981 324.093 223.136 324.247 223.136C324.368 223.136 324.398 223.052 324.403 223.035L324.417 222.979L324.388 222.933C324.338 222.852 324.263 222.818 322.602 222.416ZM321.246 223.257C321.153 223.318 321.055 223.371 320.95 223.413C321.067 223.604 321.189 223.805 321.302 223.992C322.201 225.474 322.224 225.481 322.34 225.481C322.34 225.481 322.341 225.481 322.342 225.481L322.381 225.481L322.465 225.433L322.479 225.381C322.505 225.291 322.477 225.216 321.6 223.82C321.485 223.639 321.362 223.443 321.246 223.257ZM320.864 223.444C320.759 223.48 320.649 223.506 320.536 223.521C320.597 223.738 320.66 223.967 320.719 224.18C321.186 225.871 321.201 225.872 321.343 225.869L321.438 225.848L321.467 225.802C321.517 225.72 321.511 225.641 321.048 224.074C320.988 223.871 320.924 223.652 320.864 223.444ZM322.403 222.963C322.206 222.858 321.995 222.746 321.795 222.638C321.747 222.735 321.689 222.827 321.621 222.912C321.819 223.02 322.026 223.134 322.219 223.24C323.483 223.937 323.742 224.069 323.848 224.069L323.936 224.066L324.004 223.951L323.989 223.899C323.962 223.81 323.899 223.758 322.403 222.963ZM319.61 223.395C319.506 223.35 319.409 223.295 319.318 223.232C319.197 223.426 319.068 223.631 318.949 223.821C318.071 225.216 318.043 225.291 318.069 225.382L318.086 225.437L318.17 225.482L318.207 225.482C318.325 225.482 318.343 225.481 319.246 223.993C319.363 223.799 319.49 223.591 319.61 223.395ZM319.5 224.075C319.037 225.641 319.032 225.72 319.082 225.801L319.114 225.851L319.169 225.865L319.206 225.869C319.354 225.869 319.363 225.869 319.83 224.179C319.889 223.964 319.954 223.733 320.015 223.514C319.902 223.496 319.793 223.467 319.689 223.428C319.627 223.641 319.561 223.866 319.5 224.075ZM318.763 222.544C318.724 222.446 318.695 222.343 318.677 222.237C318.437 222.297 318.182 222.359 317.945 222.416C316.285 222.818 316.21 222.852 316.16 222.933L316.13 222.983L316.145 223.035C316.149 223.052 316.18 223.136 316.301 223.136C316.456 223.136 317.068 222.981 318.059 222.724C318.286 222.666 318.532 222.602 318.763 222.544ZM318.963 222.892C318.897 222.806 318.84 222.714 318.794 222.616C318.582 222.73 318.356 222.85 318.146 222.962C316.648 223.758 316.585 223.809 316.559 223.9L316.544 223.955L316.621 224.069L316.7 224.068C316.806 224.068 317.065 223.937 318.329 223.24C318.534 223.127 318.754 223.006 318.963 222.892ZM317.946 221.584C318.182 221.641 318.438 221.703 318.677 221.763C318.695 221.657 318.724 221.554 318.763 221.456C318.531 221.398 318.285 221.334 318.057 221.275C317.067 221.019 316.456 220.864 316.301 220.864C316.18 220.864 316.149 220.948 316.144 220.965L316.131 221.021L316.159 221.067C316.21 221.148 316.285 221.182 317.946 221.584ZM320.3 220.815C319.602 220.815 319.034 221.347 319.034 222C319.034 222.653 319.602 223.185 320.3 223.185C320.998 223.185 321.566 222.653 321.566 222C321.566 221.347 320.998 220.815 320.3 220.815ZM317.078 222.169C317.343 222.169 317.642 222.167 317.94 222.166C318.189 222.164 318.436 222.162 318.665 222.162C318.659 222.109 318.656 222.055 318.656 222C318.656 221.945 318.659 221.892 318.665 221.838C318.436 221.838 318.189 221.836 317.94 221.835C317.642 221.833 317.344 221.831 317.078 221.831C316.071 221.831 316 221.842 316 222C316 222.147 316.16 222.152 316.401 222.161C316.555 222.167 316.77 222.169 317.078 222.169ZM318.736 223.672C318.902 223.514 319.081 223.344 319.251 223.184C319.163 223.116 319.084 223.038 319.012 222.954C318.84 223.115 318.657 223.284 318.487 223.441C317.258 224.574 317.211 224.64 317.21 224.733L317.212 224.791L317.297 224.868H317.353C317.453 224.867 317.523 224.824 318.736 223.672ZM320.447 223.532C320.398 223.536 320.35 223.539 320.3 223.539C320.233 223.539 320.167 223.534 320.101 223.527C320.101 223.744 320.099 223.971 320.098 224.184C320.085 225.815 320.101 225.893 320.173 225.96L320.217 226H320.274L320.336 225.998L320.376 225.96C320.447 225.893 320.464 225.815 320.451 224.184C320.449 223.973 320.448 223.747 320.447 223.532ZM322.062 223.441C321.901 223.293 321.729 223.134 321.565 222.982C321.492 223.064 321.409 223.139 321.32 223.205C321.483 223.359 321.654 223.521 321.813 223.673C323.023 224.821 323.095 224.867 323.194 224.867C323.195 224.867 323.195 224.867 323.195 224.867L323.256 224.866L323.338 224.786L323.338 224.733C323.337 224.64 323.29 224.575 322.062 223.441Z" fill="white"/>
</g>
<g opacity="0.3">
<path d="M272.559 44.1003L272.544 44.0487L272.613 43.9341L272.7 43.9312C272.806 43.9312 273.064 44.0627 274.328 44.7593C274.533 44.8722 274.754 44.9939 274.963 45.1077C274.897 45.1938 274.84 45.2861 274.794 45.3841C274.582 45.2698 274.356 45.1494 274.146 45.0378C272.648 44.242 272.585 44.1906 272.559 44.1003ZM277.048 43.9257C277.51 42.3593 277.516 42.2803 277.466 42.1986L277.434 42.1495L277.379 42.1357L277.343 42.1311C277.194 42.1311 277.185 42.1311 276.718 43.8222C276.659 44.0344 276.596 44.2625 276.535 44.4785C276.649 44.4938 276.759 44.52 276.864 44.556C276.924 44.3476 276.988 44.1295 277.048 43.9257ZM275.689 44.5726C275.792 44.5335 275.901 44.5045 276.014 44.4859C275.953 44.267 275.888 44.0353 275.829 43.82C275.362 42.1311 275.353 42.1311 275.205 42.1311L275.109 42.1524L275.081 42.1987C275.031 42.2806 275.037 42.3595 275.499 43.9257C275.561 44.1346 275.627 44.3592 275.689 44.5726ZM277.621 45.0878C277.689 45.173 277.747 45.2647 277.794 45.3621C277.995 45.2544 278.205 45.1424 278.402 45.0379C279.899 44.2421 279.962 44.1906 279.989 44.1004L280.004 44.0446L279.927 43.9313H279.848C279.742 43.9313 279.483 44.063 278.218 44.7603C278.025 44.8663 277.819 44.98 277.621 45.0878ZM275.318 44.7685C275.408 44.705 275.506 44.6501 275.61 44.605C275.489 44.4089 275.363 44.2008 275.246 44.0074C274.342 42.5185 274.324 42.5185 274.206 42.5185L274.167 42.5191L274.083 42.5666L274.069 42.6184C274.043 42.7091 274.07 42.7836 274.948 44.1785C275.068 44.369 275.197 44.5742 275.318 44.7685ZM276.949 44.5865C277.055 44.629 277.153 44.682 277.246 44.7431C277.362 44.5567 277.485 44.3614 277.6 44.1795C278.478 42.7836 278.505 42.7091 278.479 42.6182L278.463 42.5631L278.379 42.5183H278.342C278.224 42.5183 278.206 42.5183 277.302 44.0073C277.188 44.1947 277.066 44.3957 276.949 44.5865ZM277.813 44.3279C277.654 44.479 277.483 44.641 277.32 44.7948C277.409 44.8613 277.492 44.9359 277.565 45.0183C277.729 44.866 277.901 44.7072 278.062 44.5591C279.291 43.4255 279.338 43.3603 279.338 43.2666L279.337 43.2091L279.252 43.1324H279.195C279.095 43.1323 279.025 43.1763 277.813 44.3279ZM277.832 45.4441C277.872 45.5417 277.902 45.644 277.92 45.75C278.146 45.6944 278.382 45.6371 278.603 45.5837C280.263 45.1818 280.338 45.1475 280.388 45.0673L280.418 45.017L280.403 44.9652C280.398 44.9483 280.368 44.8638 280.246 44.8638C280.092 44.8638 279.479 45.0193 278.489 45.2754C278.277 45.3302 278.049 45.3886 277.832 45.4441ZM276.101 44.4733C276.166 44.4658 276.232 44.4608 276.3 44.4608C276.349 44.4608 276.398 44.4637 276.446 44.4677C276.447 44.2524 276.449 44.0265 276.45 43.8159C276.463 42.1849 276.447 42.1071 276.375 42.0399L276.331 42L276.212 42.0019L276.172 42.0397C276.101 42.1069 276.085 42.1849 276.097 43.8157C276.098 44.0286 276.1 44.2563 276.101 44.4733ZM279.468 45.8305C279.203 45.8305 278.905 45.8326 278.608 45.8345C278.378 45.8361 278.149 45.8376 277.935 45.8382C277.941 45.8914 277.944 45.9454 277.944 46.0001C277.944 46.0545 277.941 46.1085 277.935 46.1618C278.149 46.1624 278.378 46.164 278.608 46.1654C278.906 46.1676 279.204 46.1693 279.47 46.1693C280.477 46.1693 280.548 46.1582 280.548 46.0001C280.548 45.8415 280.477 45.8305 279.468 45.8305ZM274.487 44.5594C274.657 44.7163 274.84 44.8854 275.012 45.0457C275.083 44.9618 275.163 44.8844 275.251 44.816C275.08 44.6554 274.9 44.4846 274.733 44.3259C273.523 43.1763 273.453 43.1323 273.353 43.1323L273.292 43.1337L273.21 43.2132L273.21 43.2666C273.21 43.3603 273.257 43.4255 274.487 44.5594ZM278.602 46.4159C278.381 46.3626 278.146 46.3053 277.921 46.2497C277.902 46.3557 277.872 46.4583 277.832 46.5557C278.05 46.6112 278.278 46.6699 278.491 46.7249C279.48 46.9807 280.093 47.1363 280.247 47.1363C280.368 47.1363 280.398 47.0518 280.403 47.035L280.417 46.9791L280.388 46.9329C280.338 46.8524 280.263 46.818 278.602 46.4159ZM277.246 47.2567C277.153 47.3179 277.055 47.3708 276.95 47.4132C277.067 47.604 277.189 47.8048 277.302 47.9924C278.201 49.474 278.224 49.4814 278.34 49.4814C278.34 49.4814 278.341 49.4814 278.342 49.4814L278.381 49.4808L278.465 49.4333L278.479 49.3814C278.505 49.2907 278.477 49.2161 277.6 47.8204C277.485 47.6388 277.362 47.4434 277.246 47.2567ZM276.864 47.4437C276.759 47.4798 276.649 47.5061 276.536 47.5213C276.597 47.7382 276.66 47.967 276.719 48.1801C277.186 49.8709 277.201 49.8723 277.343 49.8692L277.438 49.8478L277.467 49.8016C277.517 49.7196 277.511 49.6407 277.048 48.0741C276.988 47.8705 276.924 47.6523 276.864 47.4437ZM278.403 46.9625C278.206 46.8579 277.995 46.7457 277.795 46.6379C277.747 46.7352 277.689 46.8268 277.621 46.9122C277.819 47.0201 278.026 47.1343 278.219 47.2404C279.483 47.9374 279.742 48.0687 279.848 48.0687L279.936 48.0656L280.004 47.951L279.989 47.8994C279.962 47.8095 279.899 47.7579 278.403 46.9625ZM275.61 47.395C275.506 47.35 275.409 47.295 275.318 47.2316C275.197 47.4257 275.068 47.6309 274.949 47.8211C274.071 49.2165 274.043 49.2909 274.069 49.3818L274.086 49.4372L274.17 49.482L274.207 49.4818C274.325 49.4815 274.343 49.4814 275.246 47.9926C275.363 47.7991 275.49 47.591 275.61 47.395ZM275.5 48.0747C275.037 49.6408 275.032 49.7197 275.082 49.8014L275.114 49.8507L275.169 49.8646L275.206 49.869C275.354 49.869 275.363 49.869 275.83 48.179C275.889 47.964 275.954 47.7328 276.015 47.5143C275.902 47.4956 275.793 47.4669 275.689 47.4277C275.627 47.641 275.561 47.8657 275.5 48.0747ZM274.763 46.5436C274.724 46.4459 274.695 46.3434 274.677 46.2374C274.437 46.2968 274.182 46.3587 273.945 46.4159C272.285 46.818 272.21 46.8524 272.16 46.9326L272.13 46.983L272.145 47.0347C272.149 47.0515 272.18 47.136 272.301 47.136C272.456 47.136 273.068 46.9805 274.059 46.7245C274.286 46.6659 274.532 46.6024 274.763 46.5436ZM274.963 46.8923C274.897 46.8063 274.84 46.7138 274.794 46.6158C274.582 46.73 274.356 46.8502 274.146 46.9616C272.648 47.7577 272.585 47.8091 272.559 47.8997L272.544 47.9553L272.621 48.0685L272.7 48.0684C272.806 48.0682 273.065 47.9367 274.329 47.24C274.534 47.1272 274.754 47.0059 274.963 46.8923ZM273.946 45.5841C274.182 45.6415 274.438 45.7034 274.677 45.7626C274.695 45.6566 274.724 45.5542 274.763 45.4564C274.531 45.3976 274.285 45.3341 274.057 45.2749C273.067 45.0192 272.456 44.8638 272.301 44.8638C272.18 44.8638 272.149 44.9483 272.144 44.9653L272.131 45.0212L272.159 45.0674C272.21 45.1478 272.285 45.182 273.946 45.5841ZM276.3 44.815C275.602 44.815 275.034 45.3465 275.034 45.9999C275.034 46.6533 275.602 47.185 276.3 47.185C276.998 47.185 277.566 46.6533 277.566 45.9999C277.566 45.3465 276.998 44.815 276.3 44.815ZM273.078 46.1693C273.343 46.1693 273.642 46.1673 273.94 46.1655C274.189 46.1636 274.436 46.1623 274.665 46.1618C274.659 46.1086 274.656 46.0548 274.656 45.9999C274.656 45.9454 274.659 45.8915 274.665 45.8384C274.436 45.838 274.189 45.8364 273.94 45.8346C273.642 45.8326 273.344 45.8307 273.078 45.8307C272.071 45.8307 272 45.8417 272 46.0002C272 46.1466 272.16 46.1523 272.401 46.1613C272.555 46.167 272.77 46.1693 273.078 46.1693ZM274.736 47.6719C274.902 47.514 275.081 47.344 275.251 47.1841C275.163 47.1158 275.084 47.0383 275.012 46.9544C274.84 47.1149 274.657 47.2839 274.487 47.4408C273.258 48.5744 273.211 48.6397 273.21 48.7332L273.212 48.7909L273.297 48.8676H273.353C273.453 48.8674 273.523 48.8236 274.736 47.6719ZM276.447 47.532C276.398 47.5361 276.35 47.5391 276.3 47.5391C276.233 47.5391 276.167 47.5342 276.101 47.5267C276.101 47.7437 276.099 47.9714 276.098 48.1837C276.085 49.8151 276.101 49.8929 276.173 49.9603L276.217 50H276.274L276.336 49.9979L276.376 49.9601C276.447 49.8928 276.464 49.8149 276.451 48.1841C276.449 47.9733 276.448 47.7473 276.447 47.532ZM278.062 47.4411C277.901 47.2928 277.729 47.134 277.565 46.9817C277.492 47.0641 277.409 47.1385 277.32 47.2049C277.483 47.3591 277.654 47.5212 277.813 47.6725C279.023 48.8214 279.095 48.8674 279.194 48.8674C279.195 48.8674 279.195 48.8674 279.195 48.8674L279.256 48.8657L279.338 48.7863L279.338 48.7331C279.337 48.6399 279.29 48.5747 278.062 47.4411Z" fill="white"/>
</g>
</g>
<defs>
<clipPath id="clip0">
<rect width="355" height="252" fill="white"/>
</clipPath>
</defs>
</svg>
